<?xml version="1.0" encoding="UTF-8"?>
<svg version="1.1" xmlns="http://www.w3.org/2000/svg" width="1024" height="1024">
<path d="M0 0 C337.92 0 675.84 0 1024 0 C1024 337.92 1024 675.84 1024 1024 C686.08 1024 348.16 1024 0 1024 C0 686.08 0 348.16 0 0 Z " fill="#EDEBEA" transform="translate(0,0)"/>
<path d="M0 0 C2.00005003 1.74938454 3.96886014 3.52724029 5.9375 5.3125 C7.25621094 6.46878906 7.25621094 6.46878906 8.6015625 7.6484375 C23.89831458 21.14557169 36.13711925 36.06744761 46.9375 53.3125 C47.50549316 54.21162109 47.50549316 54.21162109 48.08496094 55.12890625 C59.6704851 73.73809164 67.23189615 94.97397766 71.9375 116.3125 C72.11394043 117.09818359 72.29038086 117.88386719 72.47216797 118.69335938 C77.66263187 143.1590148 77.07098598 171.90422706 71.9375 196.3125 C71.77652832 197.13814453 71.61555664 197.96378906 71.44970703 198.81445312 C64.74254901 232.80769588 48.87542053 265.29513403 25.9375 291.3125 C25.07511719 292.29605469 24.21273438 293.27960938 23.32421875 294.29296875 C-3.99216777 325.00866279 -42.35216271 346.37741771 -82.25 355.5625 C-82.90105713 355.71372314 -83.55211426 355.86494629 -84.22290039 356.02075195 C-98.50448834 359.09659924 -112.7007855 359.68599354 -127.25 359.625 C-128.60487518 359.62226578 -128.60487518 359.62226578 -129.98712158 359.61947632 C-143.20206184 359.57457729 -156.12165428 359.24239588 -169.0625 356.3125 C-169.86155762 356.13557617 -170.66061523 355.95865234 -171.48388672 355.77636719 C-186.07894031 352.45003929 -199.80750239 347.4007974 -213.375 341.125 C-214.09896973 340.79201904 -214.82293945 340.45903809 -215.56884766 340.1159668 C-222.2319115 336.9499373 -222.2319115 336.9499373 -224.0625 334.3125 C-223.65769466 327.95213286 -220.7886501 322.28603281 -218.3125 316.5 C-217.88195312 315.43845703 -217.45140625 314.37691406 -217.0078125 313.28320312 C-216.57726562 312.27580078 -216.14671875 311.26839844 -215.703125 310.23046875 C-215.31672852 309.31031982 -214.93033203 308.3901709 -214.53222656 307.44213867 C-213.0625 305.3125 -213.0625 305.3125 -210.61157227 304.41503906 C-206.77437182 304.26068371 -204.00803039 306.06445232 -200.75 307.875 C-179.20000126 319.20612837 -156.34928484 324.25873454 -132.0625 325.3125 C-130.37640625 325.39371094 -130.37640625 325.39371094 -128.65625 325.4765625 C-115.19308297 325.81010943 -100.65894197 324.67263731 -87.62109375 321.2109375 C-84.51938397 320.42784941 -82.2127965 320.23483163 -79.0625 320.3125 C-86.1388682 304.84273756 -93.34098583 289.4354547 -100.625 274.0625 C-101.02144714 273.22531433 -101.41789429 272.38812866 -101.82635498 271.52557373 C-102.96796919 269.11557809 -104.11067782 266.70610527 -105.25390625 264.296875 C-105.59411301 263.57905853 -105.93431976 262.86124207 -106.28483582 262.12167358 C-107.75092653 259.03615929 -109.23578564 255.97610339 -110.80053711 252.93847656 C-112.0625 250.3125 -112.0625 250.3125 -112.0625 248.3125 C-147.3725 248.3125 -182.6825 248.3125 -219.0625 248.3125 C-225.31973586 260.76958882 -225.31973586 260.76958882 -231.3515625 273.328125 C-231.87923721 274.45006256 -231.87923721 274.45006256 -232.41757202 275.59466553 C-233.50938564 277.91641944 -234.59872342 280.23932053 -235.6875 282.5625 C-238.46521427 288.48582137 -241.24953832 294.40582039 -244.0625 300.3125 C-244.35926636 300.93616455 -244.65603271 301.5598291 -244.96179199 302.20239258 C-245.76621185 303.88347248 -246.58196312 305.55911665 -247.3984375 307.234375 C-247.84493652 308.1531543 -248.29143555 309.07193359 -248.75146484 310.01855469 C-250.00839786 312.21783636 -251.08455567 313.73914981 -253.0625 315.3125 C-255.75 315.5 -255.75 315.5 -258.0625 315.3125 C-258.0625 314.6525 -258.0625 313.9925 -258.0625 313.3125 C-258.87460937 312.97605469 -258.87460937 312.97605469 -259.703125 312.6328125 C-262.8003441 310.89960049 -265.24283668 308.60178453 -267.8125 306.1875 C-268.60974487 305.445 -268.60974487 305.445 -269.4230957 304.6875 C-270.97558685 303.23540469 -272.52023774 301.77544592 -274.0625 300.3125 C-275.17431641 299.26449219 -275.17431641 299.26449219 -276.30859375 298.1953125 C-312.97246577 262.63799597 -332.22326436 211.01175946 -333.34375 160.59814453 C-333.68876596 127.08307812 -325.94014788 93.8364212 -310.10400391 64.25976562 C-309.40785285 62.95819487 -308.72004314 61.65212929 -308.04052734 60.34179688 C-299.68454246 44.24056355 -288.63037647 30.33116113 -276.0625 17.3125 C-275.14425662 16.33098602 -274.22629164 15.34921152 -273.30859375 14.3671875 C-242.65092912 -17.91070489 -197.85339523 -37.44106388 -154.0625 -42.6875 C-153.28696777 -42.7817627 -152.51143555 -42.87602539 -151.71240234 -42.97314453 C-99.7008736 -48.76602052 -40.32558913 -34.30234953 0 0 Z " fill="#021D3A" transform="translate(640.0625,221.6875)"/>
<path d="M0 0 C10.43094365 9.15921087 20.00889939 19.17101111 27.86230469 30.63525391 C28.26610352 31.22177734 28.66990234 31.80830078 29.0859375 32.41259766 C47.25506429 59.20604106 57.98451651 90.19525596 58.86230469 122.63525391 C58.90226562 123.58658203 58.94222656 124.53791016 58.98339844 125.51806641 C59.78041077 159.18011665 49.1379121 194.99566722 29.86230469 222.63525391 C29.13333984 223.73160156 29.13333984 223.73160156 28.38964844 224.85009766 C27.2762751 226.4893208 26.07887611 228.07109065 24.86230469 229.63525391 C24.20230469 229.63525391 23.54230469 229.63525391 22.86230469 229.63525391 C22.53657471 228.92844482 22.21084473 228.22163574 21.87524414 227.4934082 C15.80085588 214.32640612 9.68304201 201.18632548 3.36230469 188.13525391 C-1.51893728 178.0512029 -6.28226557 167.91857367 -10.98144531 157.74853516 C-15.48170683 148.01939836 -20.0517219 138.32424738 -24.63769531 128.63525391 C-29.65733534 118.02857975 -34.65053031 107.41143745 -39.57519531 96.76025391 C-45.43143974 84.09785307 -51.39162468 71.48581365 -57.39501953 58.89257812 C-61.0305762 51.25736023 -64.62326907 43.6097356 -68.08300781 35.89306641 C-69.00081063 33.86324801 -69.91966452 31.83390802 -70.83865356 29.80462646 C-71.66720884 27.95874232 -72.47599968 26.10402526 -73.28393555 24.24902344 C-77.46800333 15.01353174 -83.21510488 5.3829733 -93.00097656 1.30712891 C-102.29282161 -1.61462127 -111.46546966 -1.6716329 -121.13769531 -1.36474609 C-122.04777344 -1.35830078 -122.95785156 -1.35185547 -123.89550781 -1.34521484 C-132.52484179 -0.97062961 -140.52890076 2.68034105 -146.52441406 8.89697266 C-151.49511886 14.83965993 -154.50737126 21.92089692 -157.76269531 28.88525391 C-158.46750015 30.36839826 -159.17332723 31.85105723 -159.88012695 33.33325195 C-161.98473345 37.75854087 -164.06428793 42.19527851 -166.13769531 46.63525391 C-166.5778598 47.57609833 -166.5778598 47.57609833 -167.0269165 48.53594971 C-169.94950123 54.78321619 -172.84956794 61.04068499 -175.73925781 67.30322266 C-179.59490724 75.64492592 -183.52101422 83.95299082 -187.45019531 92.26025391 C-188.17376345 93.79060083 -188.89731486 95.32095565 -189.62084961 96.85131836 C-190.71016683 99.15522191 -191.7995254 101.45910586 -192.88902283 103.76292419 C-196.72904051 111.8836773 -200.56125608 120.00809428 -204.38769531 128.13525391 C-204.72081726 128.8427478 -205.05393921 129.5502417 -205.39715576 130.2791748 C-210.34355953 140.78798932 -215.246817 151.31617119 -220.1237793 161.85742188 C-223.20213892 168.49992326 -226.30905305 175.12791193 -229.44238281 181.74462891 C-229.81543045 182.53269928 -230.18847809 183.32076965 -230.5728302 184.13272095 C-232.39586495 187.98258512 -234.22160053 191.83113504 -236.05151367 195.67773438 C-240.91542489 205.9241969 -245.57388082 216.25179485 -250.13769531 226.63525391 C-251.12769531 226.63525391 -252.11769531 226.63525391 -253.13769531 226.63525391 C-254.45288086 225.0690918 -254.45288086 225.0690918 -255.77441406 222.85791016 C-256.26538574 222.04322266 -256.75635742 221.22853516 -257.26220703 220.38916016 C-257.77799316 219.50099609 -258.2937793 218.61283203 -258.82519531 217.69775391 C-259.35902832 216.78767578 -259.89286133 215.87759766 -260.44287109 214.93994141 C-273.99271592 191.52267419 -283.28891051 164.93783171 -284.13769531 137.63525391 C-284.16347656 136.9359375 -284.18925781 136.23662109 -284.21582031 135.51611328 C-285.60964591 92.76051295 -272.1664402 51.24012041 -244.13769531 18.63525391 C-242.92533203 17.22179687 -242.92533203 17.22179687 -241.68847656 15.77978516 C-230.75970824 3.31964881 -218.18324843 -6.63850859 -204.13769531 -15.36474609 C-203.03039062 -16.06341797 -201.92308594 -16.76208984 -200.78222656 -17.48193359 C-138.49141454 -55.01707706 -55.01433777 -46.48696502 0 0 Z " fill="#ECEAE9" transform="translate(624.1376953125,251.36474609375)"/>
<path d="M0 0 C4.53568971 2.8768978 6.53786403 6.36631971 8.6796875 11.140625 C9.00911346 11.84689026 9.33853943 12.55315552 9.677948 13.28082275 C10.75568206 15.59851348 11.81523498 17.92404533 12.875 20.25 C13.627968 21.8775384 14.38221743 23.50448451 15.13769531 25.13085938 C16.68417619 28.46401293 18.22407848 31.80008309 19.75878906 35.13867188 C21.81539924 39.60772089 23.8970575 44.06452272 25.9921875 48.515625 C26.46426384 49.51869186 26.46426384 49.51869186 26.94587708 50.54202271 C27.57095932 51.86994446 28.19610606 53.19783585 28.82131958 54.5256958 C34.26188877 66.09193362 39.64318005 77.68565143 45.01660156 89.28320312 C49.64878017 99.26931184 54.33657722 109.22877444 59.03048706 119.18597412 C64.07870114 129.89632363 69.08586946 140.62453754 74.05981445 151.36962891 C78.05252696 159.98493183 82.09295171 168.57698681 86.14501953 177.16448975 C89.10428699 183.43941889 92.0533108 189.71915662 95 196 C95.55510254 197.18207031 96.11020508 198.36414063 96.68212891 199.58203125 C98.13033187 202.67565089 99.56759246 205.77404193 101 208.875 C101.41531982 209.75978027 101.83063965 210.64456055 102.25854492 211.55615234 C102.6269751 212.36004395 102.99540527 213.16393555 103.375 213.9921875 C103.85066406 215.01868408 103.85066406 215.01868408 104.3359375 216.06591797 C105 218 105 218 105 222 C103.6105957 223.43212891 103.6105957 223.43212891 101.67578125 224.7265625 C100.97646484 225.2009375 100.27714844 225.6753125 99.55664062 226.1640625 C98.44579102 226.88722656 98.44579102 226.88722656 97.3125 227.625 C96.2306543 228.35976563 96.2306543 228.35976563 95.12695312 229.109375 C91.50016965 231.53385491 88.09978309 233.45863454 84 235 C75.90919826 218.43349279 67.87240584 201.85075023 60.15209961 185.10766602 C54.49451965 172.85834553 48.70624068 160.67150889 42.89868164 148.49267578 C42.49730484 147.65094818 42.09592804 146.80922058 41.68238831 145.94198608 C40.88939329 144.27903271 40.09629382 142.61612915 39.30308533 140.95327759 C37.01461702 136.14982555 34.75308059 131.335236 32.515625 126.5078125 C32.01627441 125.43829346 31.51692383 124.36877441 31.00244141 123.2668457 C30.12094962 121.37621613 29.247443 119.48183002 28.38427734 117.58276367 C24.82879417 109.99868263 20.41622276 105.77553159 13 102 C9.39182859 100.80502826 5.82729836 100.79572495 2.046875 100.68359375 C1.05654266 100.6524221 1.05654266 100.6524221 0.04620361 100.62062073 C-2.05243015 100.55549853 -4.15118372 100.49641498 -6.25 100.4375 C-7.67709547 100.39427921 -9.10417905 100.3506638 -10.53125 100.30664062 C-14.02070722 100.19985589 -17.51029753 100.09848434 -21 100 C-20.55084229 100.93271729 -20.10168457 101.86543457 -19.63891602 102.82641602 C-17.96504665 106.30883259 -16.30382657 109.7971609 -14.64624023 113.28735352 C-13.92894173 114.79321177 -13.20828449 116.29747513 -12.48413086 117.80004883 C-11.44003965 119.96799319 -10.40841442 122.14150593 -9.37890625 124.31640625 C-8.89448814 125.31215416 -8.89448814 125.31215416 -8.40028381 126.32801819 C-6.4270247 130.53522173 -5.34497369 134.30173368 -5 139 C-6.8120384 140.8120384 -9.60982599 140.13715522 -12.04858398 140.14526367 C-13.99081093 140.15483345 -13.99081093 140.15483345 -15.97227478 140.16459656 C-17.39688073 140.16612511 -18.82148717 140.16723914 -20.24609375 140.16796875 C-21.69718967 140.17117962 -23.14828527 140.17454356 -24.59938049 140.17805481 C-27.64511872 140.18405246 -30.69082855 140.18589407 -33.73657227 140.18530273 C-37.64535857 140.18520109 -41.55396332 140.19885309 -45.46270657 140.21607494 C-48.4609308 140.22717671 -51.4591109 140.22922251 -54.45735359 140.22869301 C-55.89869881 140.22987589 -57.34004508 140.23431486 -58.78137016 140.24202538 C-60.79489696 140.25178786 -62.80847668 140.24769271 -64.82202148 140.24291992 C-66.54291237 140.24505745 -66.54291237 140.24505745 -68.29856873 140.24723816 C-71 140 -71 140 -73 138 C-72.65477343 133.52415011 -70.60225169 129.67533749 -68.67578125 125.69140625 C-68.33809723 124.98135941 -68.00041321 124.27131256 -67.65249634 123.53974915 C-66.54411849 121.21160067 -65.42821266 118.88714104 -64.3125 116.5625 C-63.14080029 114.10491173 -61.97113096 111.6463633 -60.8014679 109.18780518 C-60.00955262 107.52371481 -59.21697652 105.85993877 -58.42375183 104.19647217 C-54.88597763 96.77549578 -51.40377158 89.32958115 -47.9375 81.875 C-44.32787635 74.12095986 -40.70919782 66.37133461 -37.06640625 58.6328125 C-36.56562813 57.56890541 -36.56562813 57.56890541 -36.05473328 56.48350525 C-34.36785811 52.90105759 -32.67885212 49.31963049 -30.98706055 45.73950195 C-27.61963977 38.6073928 -24.28683347 31.46195064 -21.015625 24.28515625 C-20.0644007 22.20862797 -19.11240009 20.1324574 -18.16015625 18.05639648 C-17.55918608 16.73983979 -16.96209806 15.42150325 -16.36914062 14.10131836 C-15.55250787 12.28328269 -14.72188761 10.47154942 -13.890625 8.66015625 C-13.42688477 7.63543213 -12.96314453 6.61070801 -12.48535156 5.55493164 C-9.36201894 0.18253258 -6.0787193 -0.74650939 0 0 Z " fill="#EBEAE9" transform="translate(513,291)"/>
<path d="M0 0 C7.26 0 14.52 0 22 0 C23.7742755 7.33756903 25.54796791 14.67527856 27.32068348 22.0132246 C28.14418307 25.42190601 28.96792061 28.83052952 29.79223633 32.23901367 C30.74374637 36.17348556 31.69415957 40.10822173 32.64453125 44.04296875 C32.9352803 45.24455124 33.22602936 46.44613373 33.52558899 47.68412781 C34.35535071 51.1215842 35.17845538 54.56057155 36 58 C36.28902191 59.19420563 36.57804382 60.38841125 36.87582397 61.61880493 C37.15100861 62.77496307 37.42619324 63.93112122 37.7097168 65.12231445 C37.95787643 66.1565303 38.20603607 67.19074615 38.4617157 68.25630188 C39 71 39 71 39 75 C39.66 75 40.32 75 41 75 C41.10441406 73.76636719 41.20882812 72.53273438 41.31640625 71.26171875 C41.98495498 65.30503068 43.44395301 59.60845438 44.9375 53.8125 C45.23599854 52.6359082 45.53449707 51.45931641 45.84204102 50.24707031 C50.1201789 33.47031222 54.56617648 16.73612259 59 0 C66.26 0 73.52 0 81 0 C82.92149589 7.3972216 84.8420286 14.79469239 86.76171875 22.19238281 C87.41315506 24.702215 88.06484187 27.21198219 88.71679688 29.72167969 C90.55319464 36.79124775 92.38430201 43.86214241 94.20776367 50.93505859 C94.91544439 53.67287794 95.62966793 56.40888859 96.34570312 59.14453125 C96.71521094 60.57542606 97.08438721 62.00640656 97.453125 63.4375 C97.75895508 64.61183594 98.06478516 65.78617188 98.37988281 66.99609375 C98.95241859 69.76951116 99.13044566 72.18026547 99 75 C99.66 75 100.32 75 101 75 C101.11328644 74.33958206 101.22657288 73.67916412 101.34329224 72.99873352 C102.55857614 66.0960407 104.03587437 59.29265889 105.6796875 52.48046875 C105.93372345 51.41943436 106.1877594 50.35839996 106.44949341 49.26521301 C106.98421113 47.03541983 107.52043554 44.80598746 108.05810547 42.5769043 C108.87007506 39.20793425 109.67559815 35.83746907 110.48046875 32.46679688 C113.0940301 21.56890442 115.79862343 10.74085038 119 0 C126.26 0 133.52 0 141 0 C131.59910268 34.74645384 121.98024644 69.41513984 112 104 C104.41 104 96.82 104 89 104 C88.18994507 100.91797241 88.18994507 100.91797241 87.36352539 97.77368164 C85.58251216 90.99946608 83.79773625 84.22624607 82.01108646 77.45351505 C80.92752638 73.34554453 79.84525239 69.23724399 78.76586914 65.12817383 C77.72495525 61.16574091 76.68072653 57.20419549 75.63415337 53.24325371 C75.23464188 51.72883945 74.83634381 50.21410456 74.43925667 48.69905281 C73.88463061 46.58375484 73.32577455 44.46961857 72.76586914 42.35571289 C72.44832169 41.14992081 72.13077423 39.94412872 71.80360413 38.70179749 C71.26499942 36.10627495 71.26499942 36.10627495 70 35 C69.35607156 37.38861509 68.71236557 39.7772899 68.06884766 42.16601562 C67.47109328 44.3848269 66.87310388 46.60357487 66.27490234 48.82226562 C64.46526717 55.53943142 62.66267202 62.25840862 60.86952209 68.97999573 C59.87155741 72.72043549 58.87202023 76.46045444 57.87246704 80.20046997 C57.37362426 82.06881369 56.8755586 83.93736507 56.37826538 85.80612183 C55.67339418 88.45460516 54.96587057 91.10236717 54.2578125 93.75 C54.04454819 94.55409805 53.83128387 95.35819611 53.61155701 96.18666077 C52.11379528 101.77240944 52.11379528 101.77240944 51 104 C43.74 104 36.48 104 29 104 C25.6244452 93.87333561 25.6244452 93.87333561 24.56469727 90.08666992 C24.20208046 88.79687225 24.20208046 88.79687225 23.83213806 87.48101807 C23.57944656 86.57333679 23.32675507 85.66565552 23.06640625 84.73046875 C22.79208267 83.75148621 22.51775909 82.77250366 22.23512268 81.76385498 C21.34177895 78.57242109 20.45194726 75.38002184 19.5625 72.1875 C18.94321401 69.9701286 18.32391041 67.75276213 17.70458984 65.53540039 C13.4677355 50.34806825 9.27770389 35.14804631 5.125 19.9375 C4.86252472 18.97717865 4.60004944 18.0168573 4.32962036 17.0274353 C3.59575796 14.34033558 2.86384277 11.65271517 2.1328125 8.96484375 C1.91476456 8.16624939 1.69671661 7.36765503 1.47206116 6.54486084 C0 1.11596023 0 1.11596023 0 0 Z " fill="#031C38" transform="translate(261,734)"/>
<path d="M0 0 C6.27 0 12.54 0 19 0 C19.495 18.315 19.495 18.315 20 37 C21.98 35.35 23.96 33.7 26 32 C34.58676145 26.70533614 45.24103128 26.62452254 54.8984375 28.58984375 C64.21271035 31.77785196 71.57014784 39.0427102 76.0625 47.6640625 C80.77751973 59.41232 81.06116998 74.64108445 76.328125 86.45703125 C71.43844654 95.81932737 63.98655665 103.68985202 53.9296875 107.296875 C44.02668961 109.67359449 35.32549484 108.74320462 26.4765625 103.734375 C23.2441802 101.47068771 21.18265768 99.27398651 19 96 C18.67 99.3 18.34 102.6 18 106 C12.06 106 6.12 106 0 106 C0 71.02 0 36.04 0 0 Z " fill="#031D3A" transform="translate(321,606)"/>
<path d="M0 0 C6.27 0 12.54 0 19 0 C19 34.98 19 69.96 19 106 C13.06 106 7.12 106 1 106 C0.505 102.04 0.505 102.04 0 98 C-0.825 98.7425 -1.65 99.485 -2.5 100.25 C-10.1031792 106.59198833 -17.72357684 108.43839821 -27.48046875 108.33984375 C-36.80132332 107.43982783 -44.79370229 102.91352698 -51 96 C-57.75047453 87.67677093 -59.2473121 78.24897636 -59.3125 67.8125 C-59.31805908 67.06436035 -59.32361816 66.3162207 -59.3293457 65.54541016 C-59.18892189 54.66436486 -55.73944449 44.60721245 -48.1875 36.625 C-40.52395967 29.48004511 -31.27361475 26.45850091 -20.83984375 26.6875 C-12.22101906 27.63592638 -7.60473015 31.33880273 -1 37 C-0.67 24.79 -0.34 12.58 0 0 Z " fill="#021D3A" transform="translate(470,606)"/>
<path d="M0 0 C6.27 0 12.54 0 19 0 C19 34.32 19 68.64 19 104 C13.39 104 7.78 104 2 104 C2 101.03 2 98.06 2 95 C1.31035156 95.54269531 0.62070312 96.08539062 -0.08984375 96.64453125 C-8.48865281 103.0386863 -15.37915133 106.76629422 -26.10546875 106.40625 C-35.55671364 105.07975949 -43.91677394 100.31191726 -50 93 C-57.56458993 80.91292404 -60.05659595 68.59848028 -57.3125 54.45703125 C-53.90107141 42.33224547 -48.00536915 34.30504975 -37.13671875 27.90234375 C-28.99504667 24.15403648 -18.44296086 24.94713284 -10.16015625 27.85546875 C-6.91129673 29.57683555 -3.99186149 31.86295608 -1 34 C-0.67 22.78 -0.34 11.56 0 0 Z " fill="#041E3A" transform="translate(743,734)"/>
<path d="M0 0 C0.91644287 0.00523682 1.83288574 0.01047363 2.77709961 0.01586914 C4.26113281 0.02070312 4.26113281 0.02070312 5.77514648 0.02563477 C6.81606445 0.03401367 7.85698242 0.04239258 8.92944336 0.05102539 C10.49662109 0.05779297 10.49662109 0.05779297 12.09545898 0.06469727 C14.68600996 0.07652627 17.27644895 0.0930085 19.86694336 0.11352539 C24.93028801 11.59188337 29.0221143 23.43233451 33.24194336 35.23852539 C34.03389234 37.44823464 34.8260499 39.65786914 35.6184082 41.86743164 C37.23749301 46.38406531 38.85462747 50.90139096 40.47045898 55.41918945 C42.40416436 60.82405446 44.34466654 66.22644098 46.2885437 71.62765503 C47.69390727 75.53349867 49.09658437 79.44030323 50.49859619 83.34735107 C51.15937411 85.18741966 51.82111321 87.02714338 52.48382568 88.86651611 C53.39839346 91.40611886 54.308978 93.94711411 55.21850586 96.48852539 C55.62495331 97.6130159 55.62495331 97.6130159 56.03961182 98.76022339 C57.86694336 103.88513146 57.86694336 103.88513146 57.86694336 106.11352539 C50.93694336 106.11352539 44.00694336 106.11352539 36.86694336 106.11352539 C32.90694336 95.22352539 32.90694336 95.22352539 28.86694336 84.11352539 C8.57194336 83.61852539 8.57194336 83.61852539 -12.13305664 83.11352539 C-13.12305664 86.74352539 -14.11305664 90.37352539 -15.13305664 94.11352539 C-16.66098271 98.18942957 -18.39439355 102.11929938 -20.13305664 106.11352539 C-26.73305664 106.11352539 -33.33305664 106.11352539 -40.13305664 106.11352539 C-39.25012388 101.69886158 -38.02552719 97.6462387 -36.53540039 93.42211914 C-36.26945572 92.66057022 -36.00351105 91.8990213 -35.72950745 91.11439514 C-34.84699221 88.59192086 -33.95906898 86.071393 -33.07055664 83.55102539 C-32.76537109 82.68203613 -32.46018555 81.81304688 -32.14575195 80.91772461 C-27.06447015 66.45055181 -21.87524763 52.02309853 -16.63305664 37.61352539 C-16.30071014 36.69989227 -15.96836365 35.78625916 -15.62594604 34.84494019 C-13.47254647 28.93044455 -11.30813835 23.0200806 -9.13305664 17.11352539 C-8.83915039 16.31430664 -8.54524414 15.51508789 -8.24243164 14.69165039 C-7.40726134 12.42475956 -6.56790633 10.15947191 -5.72680664 7.89477539 C-5.47781616 7.21870239 -5.22882568 6.54262939 -4.97229004 5.84606934 C-2.84632764 0.15148705 -2.84632764 0.15148705 0 0 Z " fill="#031D39" transform="translate(254.133056640625,605.886474609375)"/>
<path d="M0 0 C5.64672619 4.67950555 9.8706333 9.74944672 10.74450684 17.23040771 C10.8562109 20.80081264 10.84418121 24.35020253 10.78515625 27.921875 C10.77949646 29.22012207 10.77383667 30.51836914 10.76800537 31.85595703 C10.75284292 35.28224346 10.71364544 38.70783527 10.66918945 42.1338501 C10.62803147 45.6399191 10.60995091 49.14610201 10.58984375 52.65234375 C10.54713928 59.51333232 10.4768689 66.37374864 10.39453125 73.234375 C4.78453125 73.234375 -0.82546875 73.234375 -6.60546875 73.234375 C-7.10046875 69.274375 -7.10046875 69.274375 -7.60546875 65.234375 C-8.09015625 65.70488281 -8.57484375 66.17539062 -9.07421875 66.66015625 C-17.09617714 74.11132145 -23.20271029 75.8522446 -34.19921875 75.58203125 C-41.99807585 74.78604698 -48.38532967 71.03603217 -53.60546875 65.234375 C-58.45085963 58.969772 -58.53191396 51.87516023 -57.60546875 44.234375 C-56.15733172 38.88740749 -53.37349478 35.19021201 -48.6796875 32.2578125 C-36.54491314 26.27040971 -20.91040242 26.0617561 -7.60546875 26.234375 C-8.36365737 19.35534506 -8.36365737 19.35534506 -11.91796875 13.609375 C-17.37852247 11.57323632 -22.85519649 11.25560525 -28.60546875 12.234375 C-33.28806242 15.09109402 -33.98712444 16.99768637 -36.60546875 22.234375 C-42.54546875 21.574375 -48.48546875 20.914375 -54.60546875 20.234375 C-53.43218093 10.84807247 -51.28298293 7.75199726 -44.73046875 1.484375 C-31.66486196 -7.92286189 -13.69787225 -9.28251613 0 0 Z " fill="#031C38" transform="translate(720.60546875,638.765625)"/>
<path d="M0 0 C6.9286235 4.86413539 11.50295531 9.8659589 14 18 C14.51742806 22.45926938 14.46774864 26.86351842 14.390625 31.34765625 C14.38496521 32.60009628 14.37930542 33.85253632 14.37347412 35.14292908 C14.35498158 38.44265041 14.31916413 41.7415626 14.2746582 45.04101562 C14.23344329 48.41982212 14.21540771 51.79874796 14.1953125 55.17773438 C14.15137078 61.78550866 14.08240632 68.392598 14 75 C8.39 75 2.78 75 -3 75 C-3.495 70.545 -3.495 70.545 -4 66 C-4.9590625 67.36125 -4.9590625 67.36125 -5.9375 68.75 C-10.0410303 73.69528011 -16.66444193 76.38189677 -23 77 C-32.08113179 77.80031557 -39.61368071 75.91661591 -46.875 70.25 C-52.17088527 65.21703102 -54.21512525 60.2964694 -54.5 53 C-54.23814291 46.502671 -52.89461069 41.98996257 -48.33984375 37.28515625 C-38.60689835 29.11108095 -25.13778085 28.81630864 -13 28.9375 C-12.12988281 28.94201172 -11.25976562 28.94652344 -10.36328125 28.95117188 C-8.24215707 28.9628264 -6.1210689 28.98075643 -4 29 C-4.10441825 27.56151608 -4.22467898 26.12417663 -4.3515625 24.6875 C-4.41682129 23.88699219 -4.48208008 23.08648438 -4.54931641 22.26171875 C-5.25571851 18.71669758 -7.20179215 17.13196788 -10 15 C-15.61453019 13.12848994 -21.07100571 13.08811179 -26.4375 15.625 C-29.23462493 18.21745725 -30.39287162 20.579581 -32 24 C-34.60452271 23.85913398 -37.20850197 23.71251536 -39.8125 23.5625 C-40.55048828 23.52318359 -41.28847656 23.48386719 -42.04882812 23.44335938 C-45.23071342 23.25618965 -47.96162378 23.01279207 -51 22 C-50.44409412 14.58792159 -46.61745959 9.27716351 -41.375 4.25 C-30.6537994 -4.4584845 -12.42835317 -6.61305954 0 0 Z " fill="#031B37" transform="translate(455,763)"/>
<path d="M0 0 C8.86684071 6.26155863 13.29239494 15.09758262 15.52734375 25.52734375 C15.52734375 30.14734375 15.52734375 34.76734375 15.52734375 39.52734375 C-2.29265625 39.52734375 -20.11265625 39.52734375 -38.47265625 39.52734375 C-36.73445146 48.40641517 -36.73445146 48.40641517 -31.47265625 54.52734375 C-25.50108908 57.47264213 -18.35709064 57.78298098 -12.01953125 55.734375 C-9.28050827 54.4105139 -7.07789844 53.30603949 -5.19140625 50.87890625 C-2.42617866 48.70443183 0.05639662 49.41083745 3.46484375 49.71484375 C5.30369141 49.85986328 5.30369141 49.85986328 7.1796875 50.0078125 C10.1232119 50.4646255 12.014845 50.99717534 14.52734375 52.52734375 C8.42291892 62.72450796 1.29657297 69.77253774 -10.35400391 73.05786133 C-18.83899417 74.93809137 -30.36551116 74.84015326 -38.234375 70.98046875 C-45.9404138 65.9775954 -51.89926322 60.05881962 -55.47265625 51.52734375 C-55.83617187 50.67011719 -56.1996875 49.81289063 -56.57421875 48.9296875 C-57.82635035 44.18791959 -57.8410555 39.66190149 -57.84765625 34.77734375 C-57.87214844 33.83890625 -57.89664063 32.90046875 -57.921875 31.93359375 C-57.96440366 21.67000946 -54.46674943 13.05342612 -47.47265625 5.52734375 C-34.33705326 -7.24265597 -15.70440189 -9.35317458 0 0 Z " fill="#031B36" transform="translate(659.47265625,765.47265625)"/>
<path d="M0 0 C9.24379008 6.54768464 14.70472482 14.84588306 17.34375 25.9453125 C18.04957665 30.84688648 17.8125 35.76119386 17.8125 40.7109375 C-0.0075 40.7109375 -17.8275 40.7109375 -36.1875 40.7109375 C-34.04291883 49.45829139 -34.04291883 49.45829139 -29.1875 55.7109375 C-23.67072647 58.39323084 -18.20500306 58.39546827 -12.1875 57.7109375 C-9.50343855 56.64656831 -7.57971117 55.3750844 -5.1875 53.7109375 C-4.5275 53.7109375 -3.8675 53.7109375 -3.1875 53.7109375 C-2.8575 52.7209375 -2.5275 51.7309375 -2.1875 50.7109375 C0.41758636 50.82485382 3.02095546 50.95159298 5.625 51.0859375 C6.36298828 51.116875 7.10097656 51.1478125 7.86132812 51.1796875 C11.63143115 51.38439898 13.60900741 51.57527577 16.8125 53.7109375 C9.79287836 64.5070729 2.74741238 71.85508073 -10.1875 74.7109375 C-23.18356977 75.48968038 -32.98483561 75.23078673 -43.4375 66.7109375 C-50.44775553 60.05395469 -55.16175704 51.0840968 -55.42578125 41.33203125 C-55.71593259 27.80731925 -54.6766016 17.10150375 -45.1875 6.7109375 C-33.24251699 -4.71469842 -14.71962853 -8.67406681 0 0 Z " fill="#031B36" transform="translate(573.1875,764.2890625)"/>
<path d="M0 0 C5.94 0 11.88 0 18 0 C18.495 18.315 18.495 18.315 19 37 C20.98 34.525 20.98 34.525 23 32 C28.21069812 28.17163261 33.54562696 27.31338135 39.875 27.4375 C41.05690918 27.4528479 41.05690918 27.4528479 42.26269531 27.46850586 C50.5173927 27.76866121 56.59408289 30.1787635 62.375 36.1875 C68.61316383 44.65000409 69.5716119 52.9405915 69.390625 63.2265625 C69.38496521 64.45539154 69.37930542 65.68422058 69.37347412 66.95028687 C69.35123617 70.84226852 69.30106079 74.73330059 69.25 78.625 C69.22991886 81.27733038 69.21167093 83.9296753 69.1953125 86.58203125 C69.15141223 93.05504863 69.08247013 99.52736379 69 106 C63.06 106 57.12 106 51 106 C50.9906543 104.48647949 50.98130859 102.97295898 50.97167969 101.41357422 C50.93175494 95.78876505 50.86598799 90.16450137 50.79248047 84.54003906 C50.76428549 82.10749325 50.74306368 79.67485608 50.72900391 77.2421875 C50.70755492 73.74171218 50.66089157 70.24233369 50.609375 66.7421875 C50.60814636 65.65759247 50.60691772 64.57299744 50.60565186 63.45553589 C50.48740474 57.33525144 50.09340643 53.65837681 46 49 C42.07381289 45.54971436 38.4486244 44.58449655 33.1953125 44.65234375 C28.0702963 45.46395664 24.12932287 48.50637943 21.0625 52.5625 C19.41238824 56.34805051 18.87219123 59.64926618 18.79467773 63.76855469 C18.77473251 64.70922791 18.75478729 65.64990112 18.73423767 66.61907959 C18.71752518 67.62650208 18.70081268 68.63392456 18.68359375 69.671875 C18.66281265 70.70942932 18.64203156 71.74698364 18.62062073 72.815979 C18.55528592 76.12725258 18.49631483 79.43860482 18.4375 82.75 C18.39429951 84.99610185 18.35068473 87.24219578 18.30664062 89.48828125 C18.19962093 94.99210708 18.09830808 100.49601195 18 106 C12.06 106 6.12 106 0 106 C0 71.02 0 36.04 0 0 Z " fill="#011E3C" transform="translate(748,606)"/>
<path d="M0 0 C6.27 0 12.54 0 19 0 C19.01458252 1.48322754 19.02916504 2.96645508 19.04418945 4.49462891 C19.10224449 10.00756712 19.17947779 15.52009999 19.26245117 21.03271484 C19.29566646 23.41676241 19.32370892 25.80088797 19.34643555 28.18505859 C19.38004318 31.61589739 19.43236407 35.04602363 19.48828125 38.4765625 C19.49467117 39.53928375 19.5010611 40.602005 19.50764465 41.69692993 C19.61624099 47.1864181 19.85128043 51.29277547 23 56 C26.67032326 59.4868071 29.57630842 60.28363464 34.5 60.4375 C39.02137916 60.24731987 42.26486911 59.7330226 46 57 C49.8631001 52.0928188 51.09010204 48.35457707 51.20532227 42.23144531 C51.22526749 41.29077209 51.24521271 40.35009888 51.26576233 39.38092041 C51.28247482 38.37349792 51.29918732 37.36607544 51.31640625 36.328125 C51.33718735 35.29057068 51.35796844 34.25301636 51.37937927 33.184021 C51.44471408 29.87274742 51.50368517 26.56139518 51.5625 23.25 C51.60570049 21.00389815 51.64931527 18.75780422 51.69335938 16.51171875 C51.80037907 11.00789292 51.90169192 5.50398805 52 0 C57.94 0 63.88 0 70 0 C70 25.08 70 50.16 70 76 C64.39 76 58.78 76 53 76 C52.505 72.04 52.505 72.04 52 68 C51.50371094 68.47050781 51.00742187 68.94101562 50.49609375 69.42578125 C42.32613211 76.91362085 36.84332981 78.60703595 25.73046875 78.34375 C17.94293445 77.62615522 11.7912 74.93227453 6.46875 69.1328125 C3.71132001 65.12867215 2.32241604 60.64267565 1 56 C0.82235611 55.39520813 0.64471222 54.79041626 0.46168518 54.16729736 C-0.07500491 51.64790303 -0.11977895 49.34892852 -0.11352539 46.77246094 C-0.11344986 45.73168396 -0.11337433 44.69090698 -0.11329651 43.61859131 C-0.10813522 42.50179993 -0.10297394 41.38500854 -0.09765625 40.234375 C-0.0962413 39.08584045 -0.09482635 37.93730591 -0.09336853 36.75396729 C-0.08777143 33.08595169 -0.07521944 29.41799715 -0.0625 25.75 C-0.05748463 23.26302171 -0.05292178 20.77604247 -0.04882812 18.2890625 C-0.03780295 12.19268481 -0.02054027 6.09635276 0 0 Z " fill="#021B35" transform="translate(506,636)"/>
<path d="M0 0 C6.27 0 12.54 0 19 0 C19 34.32 19 68.64 19 104 C12.73 104 6.46 104 0 104 C0 69.68 0 35.36 0 0 Z " fill="#02203F" transform="translate(485,734)"/>
<path d="M0 0 C5.94 0 11.88 0 18 0 C18 34.98 18 69.96 18 106 C12.06 106 6.12 106 0 106 C0 71.02 0 36.04 0 0 Z " fill="#011F3E" transform="translate(631,606)"/>
<path d="M0 0 C5.94 0 11.88 0 18 0 C18 34.98 18 69.96 18 106 C12.06 106 6.12 106 0 106 C0 71.02 0 36.04 0 0 Z " fill="#011F3E" transform="translate(595,606)"/>
<path d="M0 0 C5.79356386 3.26104792 9.80564051 8.10535432 11.8125 14.4375 C12.52196269 22.06652738 12.88582806 30.66206323 8.8125 37.4375 C4.9417237 41.71096852 0.3849254 45.97673492 -5.51953125 46.73828125 C-12.44916511 46.77101968 -17.34991511 45.74716212 -22.875 41.25 C-28.72148664 34.13940814 -29.91605713 28.44596495 -29.62890625 19.13671875 C-28.86837987 12.76310385 -26.86263763 7.97731939 -22.1796875 3.53125 C-15.43498734 -1.74504681 -8.09321845 -3.6419483 0 0 Z " fill="#ECEBEA" transform="translate(369.1875,650.5625)"/>
<path d="M0 0 C5.98083382 2.25568224 10.24256364 6.45317389 13.07421875 12.16796875 C15.15531656 18.53419623 15.2709764 27.30162233 13.08984375 33.6484375 C11.87987801 35.67931248 10.63929099 37.3004726 9 39 C8.51917969 39.49886719 8.03835938 39.99773438 7.54296875 40.51171875 C2.45303984 45.19875091 -2.96331889 46.49383316 -9.6953125 46.3125 C-15.02885694 45.58930753 -19.29505296 43.10271893 -22.875 39.125 C-27.58979945 32.1914714 -27.7464274 25.14371428 -27 17 C-25.4911671 10.01926045 -22.73171188 6.00621565 -16.8046875 2.05859375 C-11.54307078 -1.02776584 -5.97007445 -0.62144635 0 0 Z " fill="#ECEBEA" transform="translate(457,651)"/>
<path d="M0 0 C5.75986485 3.39574122 9.44859754 7.68413465 11.59375 14.046875 C12.50189027 22.19901785 11.84369028 28.9833854 7.59375 36.046875 C7.036875 36.975 6.48 37.903125 5.90625 38.859375 C1.26960118 43.24539416 -4.11834371 45.25711826 -10.46875 45.609375 C-17.04132575 45.32316641 -21.25288519 42.20023981 -25.78125 37.671875 C-30.01609758 30.83096738 -30.41358165 23.10559161 -28.87109375 15.359375 C-27.09175592 8.82541314 -24.86057743 4.29710922 -18.90625 0.734375 C-12.98568488 -1.96080763 -6.08856645 -2.41170489 0 0 Z " fill="#ECEAE9" transform="translate(733.40625,777.953125)"/>
<path d="M0 0 C0.66 0 1.32 0 2 0 C2.18062988 0.54712646 2.36125977 1.09425293 2.54736328 1.65795898 C5.99692393 12.09271651 9.46642175 22.51379532 13.22119141 32.84350586 C15 37.78917896 15 37.78917896 15 40 C5.76 40 -3.48 40 -13 40 C-9.625 26.5 -9.625 26.5 -7.51953125 20.703125 C-7.07802734 19.47851562 -6.63652344 18.25390625 -6.18164062 16.9921875 C-5.50391602 15.13980469 -5.50391602 15.13980469 -4.8125 13.25 C-4.34386039 11.95592483 -3.87575845 10.66165482 -3.40820312 9.3671875 C-2.27737771 6.24284511 -1.14123574 3.12055147 0 0 Z " fill="#ECEBEA" transform="translate(262,631)"/>
<path d="M0 0 C0.75410156 0.00064453 1.50820313 0.00128906 2.28515625 0.00195312 C5.52309953 0.02783367 8.15916405 0.15722135 11.25 1.1875 C11.88977451 6.30569609 10.53065701 9.22989769 7.74609375 13.35546875 C3.9792208 17.96816696 -0.39016828 19.79940063 -6.1171875 20.4609375 C-10.58752033 20.64197902 -13.75181271 20.74381641 -17.3125 17.8125 C-19.92982558 14.99384168 -20.62656915 14.11323139 -21.125 10.375 C-20.75 7.1875 -20.75 7.1875 -18.6875 4.4375 C-12.9915821 0.07466927 -6.88858484 -0.11420865 0 0 Z " fill="#E9E8E8" transform="translate(440.75,803.8125)"/>
<path d="M0 0 C-0.43583985 5.44799814 -1.51478789 8.76122851 -5 13 C-10.74987986 17.43219906 -15.39219127 18.40148631 -22.51953125 18.359375 C-26.57416189 17.77193245 -28.24960036 15.96196885 -31 13 C-32.44430855 10.11138291 -32.37688506 8.20352299 -32 5 C-28.92430304 0.63449464 -25.81505118 -0.82593792 -20.7421875 -1.72265625 C-5.28160693 -3.2863332 -5.28160693 -3.2863332 0 0 Z " fill="#ECEAE9" transform="translate(714,680)"/>
<path d="M0 0 C3.94399627 2.83449424 6.10005944 6.40100931 7.5625 11 C7.5625 11.99 7.5625 12.98 7.5625 14 C-4.3175 14 -16.1975 14 -28.4375 14 C-27.44726564 7.06835949 -27.20501958 5.56023612 -22.4375 1 C-15.60553611 -3.09917833 -7.13894028 -3.94239985 0 0 Z " fill="#EDECEC" transform="translate(649.4375,778)"/>
<path d="M0 0 C6.27 0 12.54 0 19 0 C19 34.32 19 68.64 19 104 C12.73 104 6.46 104 0 104 C0 69.68 0 35.36 0 0 Z M2 1 C2 34.33 2 67.66 2 102 C6.95 102 11.9 102 17 102 C17 68.67 17 35.34 17 1 C12.05 1 7.1 1 2 1 Z " fill="#131924" transform="translate(485,734)"/>
<path d="M0 0 C5.45093565 4.91913705 6.46256564 6.6129595 7.5625 14.3125 C-3.9875 14.3125 -15.5375 14.3125 -27.4375 14.3125 C-26.44726564 7.38085949 -26.20501958 5.87273612 -21.4375 1.3125 C-14.82260131 -2.65643921 -7.01188247 -3.44219685 0 0 Z " fill="#EDECEC" transform="translate(564.4375,777.6875)"/>
<path d="M0 0 C6.27 0 12.54 0 19 0 C19 34.98 19 69.96 19 106 C13.06 106 7.12 106 1 106 C1 103.36 1 100.72 1 98 C1.66 98 2.32 98 3 98 C3 99.98 3 101.96 3 104 C7.62 104 12.24 104 17 104 C17 70.34 17 36.68 17 2 C12.05 2 7.1 2 2 2 C2 14.21 2 26.42 2 39 C-3.68088674 37.86382265 -4.90204811 36.71674706 -9 33 C-8.67 32.34 -8.34 31.68 -8 31 C-5.69 32.98 -3.38 34.96 -1 37 C-0.67 24.79 -0.34 12.58 0 0 Z " fill="#010411" transform="translate(470,606)"/>
<path d="M0 0 C5.94 0 11.88 0 18 0 C18 34.98 18 69.96 18 106 C12.06 106 6.12 106 0 106 C0 71.02 0 36.04 0 0 Z M2 2 C2 35.66 2 69.32 2 104 C6.95 104 11.9 104 17 104 C17 70.34 17 36.68 17 2 C12.05 2 7.1 2 2 2 Z " fill="#00020A" transform="translate(631,606)"/>
<path d="M0 0 C5.94 0 11.88 0 18 0 C18 34.98 18 69.96 18 106 C12.06 106 6.12 106 0 106 C0 71.02 0 36.04 0 0 Z M2 2 C2 35.66 2 69.32 2 104 C6.95 104 11.9 104 17 104 C17 70.34 17 36.68 17 2 C12.05 2 7.1 2 2 2 Z " fill="#01040D" transform="translate(595,606)"/>
<path d="M0 0 C5.94 0 11.88 0 18 0 C18.06058594 2.64773438 18.12117187 5.29546875 18.18359375 8.0234375 C18.24536422 10.58173535 18.30875975 13.13998811 18.37231445 15.69824219 C18.4156833 17.47912603 18.45735694 19.26005198 18.49731445 21.04101562 C18.5549699 23.59778548 18.6186777 26.15434298 18.68359375 28.7109375 C18.70030624 29.50994476 18.71701874 30.30895203 18.73423767 31.13217163 C18.75392991 35.19806368 18.75392991 35.19806368 20 39 C19.01 39 18.02 39 17 39 C17 26.79 17 14.58 17 2 C12.05 2 7.1 2 2 2 C2 35.66 2 69.32 2 104 C6.95 104 11.9 104 17 104 C16.98428955 102.57212158 16.9685791 101.14424316 16.95239258 99.6730957 C16.89805644 94.37106984 16.86363624 89.06906857 16.83520508 83.7668457 C16.82012692 81.47285828 16.7996613 79.17889963 16.77368164 76.88500977 C16.73725642 73.58602795 16.72026369 70.2874276 16.70703125 66.98828125 C16.69154739 65.96414627 16.67606354 64.94001129 16.66011047 63.88484192 C16.65803587 55.08976233 16.65803587 55.08976233 20 51 C20.33 51.66 20.66 52.32 21 53 C20.69916504 53.80711426 20.39833008 54.61422852 20.08837891 55.44580078 C18.60821315 60.27941519 18.64419692 64.83823679 18.5859375 69.8671875 C18.56657135 70.90191193 18.5472052 71.93663635 18.5272522 73.00271606 C18.46768158 76.29339467 18.42116095 79.58410868 18.375 82.875 C18.33679952 85.11199405 18.29774659 87.34897372 18.2578125 89.5859375 C18.16199844 95.05717425 18.07788415 100.52847983 18 106 C12.06 106 6.12 106 0 106 C0 71.02 0 36.04 0 0 Z " fill="#01050F" transform="translate(748,606)"/>
<path d="M0 0 C5.94 0 11.88 0 18 0 C18 12.87 18 25.74 18 39 C17.67 39 17.34 39 17 39 C17 26.79 17 14.58 17 2 C12.05 2 7.1 2 2 2 C2 35.66 2 69.32 2 104 C6.95 104 11.9 104 17 104 C17 100.7 17 97.4 17 94 C21 95 21 95 22.6875 97.25 C25.8499437 101.01074386 29.65570717 102.81857091 34 105 C31 106 31 106 28.84375 104.92578125 C27.68359375 104.12720703 27.68359375 104.12720703 26.5 103.3125 C25.7265625 102.79300781 24.953125 102.27351562 24.15625 101.73828125 C22 100 22 100 19 96 C18.67 99.3 18.34 102.6 18 106 C12.06 106 6.12 106 0 106 C0 71.02 0 36.04 0 0 Z " fill="#25282E" transform="translate(321,606)"/>
<path d="M0 0 C5.94 0 11.88 0 18 0 C18 34.32 18 68.64 18 104 C12.39 104 6.78 104 1 104 C1 101.03 1 98.06 1 95 C1.33 95 1.66 95 2 95 C2 97.31 2 99.62 2 102 C6.62 102 11.24 102 16 102 C16 68.67 16 35.34 16 1 C11.05 1 6.1 1 1 1 C1 12.88 1 24.76 1 37 C0.01 36.67 -0.98 36.34 -2 36 C-1.34 36 -0.68 36 0 36 C0 24.12 0 12.24 0 0 Z " fill="#00040F" transform="translate(744,734)"/>
<path d="M0 0 C1.27423828 -0.00193359 1.27423828 -0.00193359 2.57421875 -0.00390625 C3.91419922 0.00189453 3.91419922 0.00189453 5.28125 0.0078125 C6.17457031 0.00394531 7.06789063 0.00007812 7.98828125 -0.00390625 C8.83777344 -0.00261719 9.68726563 -0.00132812 10.5625 0 C11.34689453 0.00112793 12.13128906 0.00225586 12.93945312 0.00341797 C14.78125 0.1328125 14.78125 0.1328125 15.78125 1.1328125 C15.94121166 3.72434357 16.04063697 6.2923327 16.09765625 8.88671875 C16.11843735 9.66216537 16.13921844 10.437612 16.16062927 11.23655701 C16.22620802 13.72271558 16.28504799 16.20898295 16.34375 18.6953125 C16.38692733 20.37696454 16.43054136 22.05860544 16.47460938 23.74023438 C16.58189779 27.87098121 16.68314132 32.00183786 16.78125 36.1328125 C17.77125 36.1328125 18.76125 36.1328125 19.78125 36.1328125 C18.13125 37.4528125 16.48125 38.7728125 14.78125 40.1328125 C14.78125 27.5928125 14.78125 15.0528125 14.78125 2.1328125 C8.51125 2.1328125 2.24125 2.1328125 -4.21875 2.1328125 C-4.21875 37.1128125 -4.21875 72.0928125 -4.21875 108.1328125 C1.72125 108.1328125 7.66125 108.1328125 13.78125 108.1328125 C13.78125 104.5028125 13.78125 100.8728125 13.78125 97.1328125 C16.78125 100.1328125 19.78125 103.1328125 22.78125 106.1328125 C17.90625 104.2578125 17.90625 104.2578125 16.78125 103.1328125 C16.471875 104.1021875 16.1625 105.0715625 15.84375 106.0703125 C14.78125 109.1328125 14.78125 109.1328125 13.78125 110.1328125 C12.45081375 110.2311846 11.11531656 110.26359842 9.78125 110.265625 C8.976875 110.26691406 8.1725 110.26820313 7.34375 110.26953125 C6.498125 110.26566406 5.6525 110.26179687 4.78125 110.2578125 C3.935625 110.26167969 3.09 110.26554688 2.21875 110.26953125 C1.414375 110.26824219 0.61 110.26695312 -0.21875 110.265625 C-0.96125 110.26449707 -1.70375 110.26336914 -2.46875 110.26220703 C-4.21875 110.1328125 -4.21875 110.1328125 -5.21875 109.1328125 C-5.31637523 107.7310292 -5.34506658 106.32436797 -5.34573364 104.91918945 C-5.34855347 104.01053131 -5.35137329 103.10187317 -5.35427856 102.16567993 C-5.35225433 101.16096649 -5.3502301 100.15625305 -5.34814453 99.12109375 C-5.34989685 98.0691684 -5.35164917 97.01724304 -5.35345459 95.93344116 C-5.35787543 92.43738176 -5.35493429 88.94137247 -5.3515625 85.4453125 C-5.35223547 83.02775055 -5.35320544 80.61018867 -5.35446167 78.19262695 C-5.35593896 73.11832029 -5.35378309 68.04403119 -5.34912109 62.96972656 C-5.3434238 56.44896547 -5.34670263 49.92824554 -5.35269356 43.40748596 C-5.35629833 38.41312344 -5.35516097 33.41877076 -5.35256577 28.42440796 C-5.35189626 26.01931758 -5.35272572 23.61422632 -5.35504532 21.20913696 C-5.35757048 17.85424415 -5.35373317 14.499419 -5.34814453 11.14453125 C-5.35016876 10.13981781 -5.35219299 9.13510437 -5.35427856 8.09994507 C-5.35004883 6.73695786 -5.35004883 6.73695786 -5.34573364 5.34643555 C-5.34535662 4.55222702 -5.34497959 3.75801849 -5.34459114 2.93974304 C-5.09791276 -0.60226795 -3.05203738 0.00438871 0 0 Z " fill="#FDFDFD" transform="translate(325.21875,603.8671875)"/>
<path d="M0 0 C0.66 0 1.32 0 2 0 C3.7009901 3.7089847 4.25216589 6.60692932 4.25878906 10.67651367 C4.26509338 11.79084274 4.27139771 12.90517181 4.27789307 14.05326843 C4.2738446 15.24611954 4.26979614 16.43897064 4.265625 17.66796875 C4.26753845 18.89912918 4.2694519 20.13028961 4.27142334 21.39875793 C4.27278282 23.99687912 4.26910295 26.59500715 4.26074219 29.19311523 C4.25356548 31.86170775 4.25163661 34.52949474 4.26074219 37.19799805 C4.27305361 41.04223827 4.27161364 44.88621796 4.265625 48.73046875 C4.26967346 49.92939255 4.27372192 51.12831635 4.27789307 52.36357117 C4.27158875 53.46844376 4.26528442 54.57331635 4.25878906 55.71166992 C4.25640228 57.17463753 4.25640228 57.17463753 4.25396729 58.66716003 C4 61 4 61 2 63 C-0.85565359 63.22552341 -3.5825351 63.32428763 -6.4375 63.3125 C-7.60249023 63.33666992 -7.60249023 63.33666992 -8.79101562 63.36132812 C-14.54983375 63.36628835 -14.54983375 63.36628835 -16.70336914 61.61401367 C-18.18723471 59.76693492 -18.60086938 58.31495761 -19 56 C-18.01 55.34 -17.02 54.68 -16 54 C-16 56.31 -16 58.62 -16 61 C-10.39 61 -4.78 61 1 61 C0.67 40.87 0.34 20.74 0 0 Z " fill="#DCDEDF" transform="translate(730,651)"/>
<path d="M0 0 C4.89326308 1.39807517 7.0857479 3.90429435 10 8 C12.45207905 13.49523709 12.25774467 18.75015036 12.1953125 24.6484375 C12.1924826 25.66096588 12.18965271 26.67349426 12.18673706 27.71670532 C12.17558254 30.93625938 12.15048646 34.15553065 12.125 37.375 C12.1149641 39.56379805 12.10583931 41.75260049 12.09765625 43.94140625 C12.07565865 49.29437904 12.04116122 54.64714165 12 60 C16.95 60 21.9 60 27 60 C27 43.5 27 27 27 10 C27.33 10 27.66 10 28 10 C28 27.16 28 44.32 28 62 C22.06 62 16.12 62 10 62 C9.9906543 60.48647949 9.98130859 58.97295898 9.97167969 57.41357422 C9.93175494 51.78876505 9.86598799 46.16450137 9.79248047 40.54003906 C9.76428549 38.10749325 9.74306368 35.67485608 9.72900391 33.2421875 C9.70755492 29.74171218 9.66089157 26.24233369 9.609375 22.7421875 C9.60814636 21.65759247 9.60691772 20.57299744 9.60565186 19.45553589 C9.44759724 11.27487777 7.90881738 8.04103635 2.25 2.125 C1.5075 1.42375 0.765 0.7225 0 0 Z " fill="#00020A" transform="translate(789,650)"/>
<path d="M0 0 C3.24532559 4.86798838 2.40274918 10.48281763 1.5 16.125 C1.335 16.74375 1.17 17.3625 1 18 C1.66 18 2.32 18 3 18 C3.02495303 22.25007753 3.0429783 26.50011481 3.05493164 30.75024414 C3.05992148 32.192309 3.06671573 33.63436891 3.07543945 35.07641602 C3.18949038 54.43152887 3.18949038 54.43152887 1 61 C0.96125079 62.66621616 0.9549714 64.33394172 1 66 C0.01 65.34 -0.98 64.68 -2 64 C-1.9278125 63.3080957 -1.855625 62.61619141 -1.78125 61.90332031 C-0.80073465 51.18233819 -0.92176457 40.5055089 -1 29.75 C-1.02680795 26.03646083 -1.04667631 22.32297544 -1.0625 18.609375 C-1.07079834 17.77790955 -1.07909668 16.94644409 -1.08764648 16.08978271 C-1.11016591 10.64790888 -0.68695172 5.39960283 0 0 Z " fill="#E8EAEB" transform="translate(715,346)"/>
<path d="M0 0 C2 2 2 2 2.24723816 4.31506348 C2.24581314 5.28165894 2.24438812 6.24825439 2.24291992 7.24414062 C2.24599655 8.33867554 2.24907318 9.43321045 2.25224304 10.56091309 C2.24505753 11.74737427 2.23787201 12.93383545 2.23046875 14.15625 C2.22978142 15.97606384 2.22978142 15.97606384 2.2290802 17.8326416 C2.22605474 20.40162126 2.21815973 22.97059903 2.20581055 25.53955078 C2.18757645 29.48346417 2.18530066 33.42714266 2.18554688 37.37109375 C2.18063102 39.86198121 2.17480241 42.35286707 2.16796875 44.84375 C2.16685593 46.03021118 2.1657431 47.21667236 2.16459656 48.43908691 C2.15821671 49.53362183 2.15183685 50.62815674 2.14526367 51.75585938 C2.13954597 53.20575256 2.13954597 53.20575256 2.13371277 54.68493652 C2 57 2 57 1 59 C-4.94 59 -10.88 59 -17 59 C-17.99 56.36 -18.98 53.72 -20 51 C-19.01 50.34 -18.02 49.68 -17 49 C-17 51.64 -17 54.28 -17 57 C-11.39 57 -5.78 57 0 57 C0 38.19 0 19.38 0 0 Z " fill="#FBFBFB" transform="translate(469,781)"/>
<path d="M0 0 C5.2181574 1.38127696 8.00893705 4.71771315 11 9 C13.41464261 13.22983636 14.37188396 16.23402517 14.34057617 21.09716797 C14.34034958 22.27793915 14.34012299 23.45871033 14.33988953 24.67526245 C14.32440567 25.93484772 14.30892181 27.19443298 14.29296875 28.4921875 C14.28872391 29.79326447 14.28447906 31.09434143 14.28010559 32.43484497 C14.26870479 35.87745763 14.23927974 39.31968467 14.20599365 42.762146 C14.17518917 46.28148178 14.1615782 49.80088047 14.14648438 53.3203125 C14.11440454 60.2137151 14.06167634 67.10679928 14 74 C8.39 74 2.78 74 -3 74 C-3 66 -3 66 -1 64 C-1 66.64 -1 69.28 -1 72 C3.62 72 8.24 72 13 72 C12.95568846 64.49225055 12.88568517 56.98532933 12.79248047 49.47802734 C12.76435829 46.92731336 12.74310051 44.37651365 12.72900391 41.82568359 C12.70745382 38.14636623 12.66073865 34.46807019 12.609375 30.7890625 C12.60814636 29.65949127 12.60691772 28.52992004 12.60565186 27.36611938 C12.45797403 19.27498833 11.30436277 11.8169008 5.859375 5.52734375 C4.81523438 4.74037109 4.81523438 4.74037109 3.75 3.9375 C2.49527218 2.96439905 1.24372189 1.98712878 0 1 C0 0.67 0 0.34 0 0 Z " fill="#040306" transform="translate(717,638)"/>
<path d="M0 0 C18.15 0 36.3 0 55 0 C55 0.66 55 1.32 55 2 C37.51 2 20.02 2 2 2 C4.11867591 9.41090399 4.11867591 9.41090399 8 15 C4.66479623 13.63368753 3.31188163 12.42902417 1.75 9.1875 C1.41484375 8.52105469 1.0796875 7.85460937 0.734375 7.16796875 C0 5 0 5 0 0 Z " fill="#F0F2F3" transform="translate(537,805)"/>
<path d="M0 0 C0.33 0 0.66 0 1 0 C1.37972165 20.77174809 1.29252936 40.75032246 -4 61 C-4.33 61 -4.66 61 -5 61 C-4.85656032 59.31229485 -4.71011431 57.62484514 -4.5625 55.9375 C-4.48128906 54.99777344 -4.40007813 54.05804688 -4.31640625 53.08984375 C-4.09852687 50.96215742 -3.82006243 48.84009475 -3.4921875 46.7265625 C-2.90645665 42.29174319 -2.72684772 37.90431118 -2.5625 33.4375 C-2.09794637 22.2530955 -1.10771972 11.13685605 0 0 Z " fill="#05101F" transform="translate(714,365)"/>
<path d="M0 0 C3.75003383 1.25001128 3.98168758 2.77796443 5.7890625 6.09375 C9.91046654 12.58163765 16.72054686 16.13372409 24 18 C28.66489888 18.57765137 33.30273311 18.86463208 38 19 C38 18.34 38 17.68 38 17 C42.29 16.01 46.58 15.02 51 14 C45.14162408 19.85837592 39.8953062 21.14570621 31.6875 21.5 C21.98534816 21.23931134 13.71227923 17.57925271 6.69140625 10.91015625 C0 3.35334873 0 3.35334873 0 0 Z " fill="#0F1219" transform="translate(414,693)"/>
<path d="M0 0 C0.33 0 0.66 0 1 0 C1 18.15 1 36.3 1 55 C-4.61 55 -10.22 55 -16 55 C-16 52.03 -16 49.06 -16 46 C-15.01 45.505 -15.01 45.505 -14 45 C-14 47.64 -14 50.28 -14 53 C-9.38 53 -4.76 53 0 53 C0 35.51 0 18.02 0 0 Z " fill="#020001" transform="translate(468,783)"/>
<path d="M0 0 C0.66 0.33 1.32 0.66 2 1 C4.74528831 1.12258264 7.46686032 1.18571787 10.21337891 1.20532227 C11.48665794 1.22017166 11.48665794 1.22017166 12.78565979 1.23532104 C15.59926538 1.26697917 18.41288788 1.29171049 21.2265625 1.31640625 C23.17427008 1.33697206 25.12197316 1.35796843 27.06967163 1.37937927 C32.2021521 1.43463852 37.33467311 1.48403079 42.46722412 1.53222656 C47.70214455 1.58241348 52.93700594 1.63811419 58.171875 1.69335938 C68.44786626 1.80098806 78.72390873 1.90242256 89 2 C89 2.33 89 2.66 89 3 C77.43053323 3.17678124 65.86096734 3.34274933 54.29114723 3.49477577 C48.91926448 3.56570464 43.54748869 3.64040817 38.17578125 3.72363281 C32.99526439 3.80375818 27.81469989 3.87410601 22.63395309 3.93757248 C20.65388441 3.96356769 18.67385937 3.99313221 16.69389725 4.02626419 C13.92828492 4.07194312 11.16279175 4.10511796 8.39697266 4.13525391 C7.57194748 4.1517952 6.7469223 4.16833649 5.89689636 4.18537903 C3.93034905 4.20020076 1.96353086 4.10988435 0 4 C-0.66 3.34 -1.32 2.68 -2 2 C-1.34 1.34 -0.68 0.68 0 0 Z " fill="#E1E0E1" transform="translate(421,469)"/>
<path d="M0 0 C2 1 2 1 2.77783203 2.73413086 C3.01872559 3.47026611 3.25961914 4.20640137 3.5078125 4.96484375 C3.90419922 6.16463867 3.90419922 6.16463867 4.30859375 7.38867188 C4.57800781 8.22978516 4.84742188 9.07089844 5.125 9.9375 C5.40214844 10.77474609 5.67929687 11.61199219 5.96484375 12.47460938 C8 18.70539563 8 18.70539563 8 21 C13.94 21 19.88 21 26 21 C25.34 19.68 24.68 18.36 24 17 C24.33 16.01 24.66 15.02 25 14 C26.485 18.455 26.485 18.455 28 23 C21.07 23 14.14 23 7 23 C5.845 19.761875 4.69 16.52375 3.5 13.1875 C3.13455078 12.17067139 2.76910156 11.15384277 2.39257812 10.10620117 C2.10833984 9.30158447 1.82410156 8.49696777 1.53125 7.66796875 C1.09135742 6.43469849 1.09135742 6.43469849 0.64257812 5.17651367 C0 3 0 3 0 0 Z " fill="#040711" transform="translate(284,689)"/>
<path d="M0 0 C2.71666013 4.98078765 3.7654806 10.40439799 5.125 15.875 C5.40214844 16.95136719 5.67929687 18.02773438 5.96484375 19.13671875 C6.22652344 20.18214844 6.48820312 21.22757813 6.7578125 22.3046875 C6.9964502 23.25327637 7.23508789 24.20186523 7.48095703 25.17919922 C8.03262391 28.1772985 8.08931285 30.95830759 8 34 C5.79727766 30.69591649 5.06799274 27.80472414 4 24 C3.67 23.34 3.34 22.68 3 22 C-0.09995492 15.80009016 -0.85211569 8.859557 -1 2 C-0.67 1.34 -0.34 0.68 0 0 Z " fill="#0F1B29" transform="translate(350,768)"/>
<path d="M0 0 C1.85955942 2.78933912 2.50927881 4.42579925 3.2890625 7.59765625 C3.61777344 8.92313477 3.61777344 8.92313477 3.953125 10.27539062 C4.17484375 11.19513672 4.3965625 12.11488281 4.625 13.0625 C4.85445313 13.98611328 5.08390625 14.90972656 5.3203125 15.86132812 C7 22.70505487 7 22.70505487 7 25 C7.66 25 8.32 25 9 25 C9.33 24.34 9.66 23.68 10 23 C9.67 26.63 9.34 30.26 9 34 C8.34 34 7.68 34 7 34 C5.99569004 29.96329975 4.99903 25.92480919 4.00927734 21.88452148 C3.67183363 20.5116141 3.33234027 19.13920874 2.99072266 17.76733398 C2.49876979 15.79019979 2.0143262 13.81135049 1.53125 11.83203125 C1.23798828 10.64327393 0.94472656 9.4545166 0.64257812 8.22973633 C0.07367599 5.37031142 -0.13390677 2.90051639 0 0 Z " fill="#F7F8F7" transform="translate(293,775)"/>
<path d="M0 0 C1 4 1 4 -2 13 C-9.26 13 -16.52 13 -24 13 C-24.33 11.35 -24.66 9.7 -25 8 C-24.01 8.495 -24.01 8.495 -23 9 C-23 9.66 -23 10.32 -23 11 C-16.4 10.67 -9.8 10.34 -3 10 C-2.01 6.7 -1.02 3.4 0 0 Z " fill="#020511" transform="translate(314,825)"/>
<path d="M0 0 C0 0.66 0 1.32 0 2 C-1.98 2.33 -3.96 2.66 -6 3 C-6 3.33 -6 3.66 -6 4 C-11.28 4 -16.56 4 -22 4 C-22 3.34 -22 2.68 -22 2 C-22.66 1.67 -23.32 1.34 -24 1 C-22.74703125 0.93941406 -21.4940625 0.87882813 -20.203125 0.81640625 C-18.55207276 0.73197744 -16.90103165 0.64733061 -15.25 0.5625 C-14.425 0.52318359 -13.6 0.48386719 -12.75 0.44335938 C-11.95078125 0.40146484 -11.1515625 0.35957031 -10.328125 0.31640625 C-9.5949707 0.27974854 -8.86181641 0.24309082 -8.10644531 0.20532227 C-5.97165223 0.0564432 -5.97165223 0.0564432 -3.85449219 -0.58227539 C-2 -1 -2 -1 0 0 Z " fill="#DDDDDF" transform="translate(653,838)"/>
<path d="M0 0 C7.26 0 14.52 0 22 0 C25 7 25 7 24 11 C23.01 8.36 22.02 5.72 21 3 C14.07 2.67 7.14 2.34 0 2 C0 2.99 0 3.98 0 5 C-0.66 4.67 -1.32 4.34 -2 4 C-1.34 2.68 -0.68 1.36 0 0 Z " fill="#020612" transform="translate(252,606)"/>
<path d="M0 0 C0.33 0 0.66 0 1 0 C1 10.23 1 20.46 1 31 C0.67 31 0.34 31 0 31 C0 20.77 0 10.54 0 0 Z M-1 31 C-0.67 31 -0.34 31 0 31 C0.02712066 32.43739513 0.04645067 33.87493863 0.0625 35.3125 C0.07410156 36.11300781 0.08570313 36.91351563 0.09765625 37.73828125 C0 40 0 40 -1 43 C-1.03874921 44.66621616 -1.0450286 46.33394172 -1 48 C-1.99 47.34 -2.98 46.68 -4 46 C-3.88623383 43.87436897 -3.75864369 41.7494739 -3.625 39.625 C-3.55539062 38.44164062 -3.48578125 37.25828125 -3.4140625 36.0390625 C-3 33 -3 33 -1 31 Z " fill="#E3E1E0" transform="translate(717,364)"/>
<path d="M0 0 C4.39105757 2.58001582 6.59641456 5.0043504 8.26171875 9.83984375 C8.60689365 11.20700707 8.93156263 12.58041555 9.19921875 13.96484375 C8.53921875 13.96484375 7.87921875 13.96484375 7.19921875 13.96484375 C6.85310547 13.16820312 6.85310547 13.16820312 6.5 12.35546875 C4.04109565 7.0294625 1.59275941 3.66161408 -3.80078125 0.96484375 C-12.88231364 0.03222847 -18.38968023 2.02410974 -25.80078125 6.96484375 C-24.64770385 3.37749185 -22.49393711 1.46963238 -19.18359375 -0.26171875 C-13.00064643 -2.26864263 -6.09574119 -2.25295874 0 0 Z " fill="#05050A" transform="translate(564.80078125,776.03515625)"/>
<path d="M0 0 C0.33 0.66 0.66 1.32 1 2 C8.92 2 16.84 2 25 2 C25.33 1.34 25.66 0.68 26 0 C26.33 1.32 26.66 2.64 27 4 C17.76 4 8.52 4 -1 4 C-0.67 2.68 -0.34 1.36 0 0 Z " fill="#FCFCFB" transform="translate(250,667)"/>
<path d="M0 0 C9.24 0 18.48 0 28 0 C28 0.33 28 0.66 28 1 C30.64 1.33 33.28 1.66 36 2 C36 2.33 36 2.66 36 3 C31.68755812 3.05859908 27.37522026 3.09379686 23.0625 3.125 C21.24395508 3.15013672 21.24395508 3.15013672 19.38867188 3.17578125 C12.5823144 3.21267208 6.57150148 2.80060558 0 1 C0 0.67 0 0.34 0 0 Z " fill="#E3E3E3" transform="translate(489,581)"/>
<path d="M0 0 C0.99 0 1.98 0 3 0 C4.87804878 24.54878049 4.87804878 24.54878049 3 33 C2.67 33 2.34 33 2 33 C1.67 25.08 1.34 17.16 1 9 C0.67 9 0.34 9 0 9 C0 6.03 0 3.06 0 0 Z " fill="#DADEE1" transform="translate(679,359)"/>
<path d="M0 0 C0.74958984 0.00451172 1.49917969 0.00902344 2.27148438 0.01367188 C4.11852383 0.02543646 5.96552213 0.04337135 7.8125 0.0625 C7.8125 0.7225 7.8125 1.3825 7.8125 2.0625 C6.94367187 2.05089844 6.07484375 2.03929687 5.1796875 2.02734375 C4.02726563 2.01832031 2.87484375 2.00929688 1.6875 2 C-0.01792969 1.98259766 -0.01792969 1.98259766 -1.7578125 1.96484375 C-5.02127826 2.05776703 -8.00720243 2.32640739 -11.1875 3.0625 C-12.23771103 4.91221696 -12.23771103 4.91221696 -13.1875 7.0625 C-16.3125 9.3125 -16.3125 9.3125 -19.1875 11.0625 C-19.125 8.875 -19.125 8.875 -18.1875 6.0625 C-12.56492077 0.84463084 -7.52770692 -0.08546741 0 0 Z " fill="#0A1321" transform="translate(787.1875,633.9375)"/>
<path d="M0 0 C0 2.97 0 5.94 0 9 C5.94 9 11.88 9 18 9 C17.67 9.66 17.34 10.32 17 11 C14.20807795 11.05380578 11.4171859 11.09357669 8.625 11.125 C7.8309375 11.14175781 7.036875 11.15851562 6.21875 11.17578125 C4.14507985 11.19335473 2.07116759 11.10335168 0 11 C-2 9 -2 9 -2.125 6.375 C-2.08375 5.59125 -2.0425 4.8075 -2 4 C-2.66 3.67 -3.32 3.34 -4 3 C-1.125 0 -1.125 0 0 0 Z " fill="#F9F9F9" transform="translate(559,703)"/>
<path d="M0 0 C3 3.625 3 3.625 3 7 C3.66 7 4.32 7 5 7 C5.26554687 7.94101562 5.53109375 8.88203125 5.8046875 9.8515625 C6.15789062 11.09679687 6.51109375 12.34203125 6.875 13.625 C7.22304688 14.85476563 7.57109375 16.08453125 7.9296875 17.3515625 C8.607523 19.66214043 9.3552421 21.95427779 10.1953125 24.2109375 C11.04201261 27.14561653 10.85107244 28.17643312 10 31 C8.56975258 27.06948228 7.14576919 23.13676931 5.72753906 19.2019043 C5.24422865 17.86371832 4.75921402 16.52614657 4.27246094 15.18920898 C3.57297655 13.26705444 2.87965723 11.34277196 2.1875 9.41796875 C1.76855469 8.26063232 1.34960938 7.1032959 0.91796875 5.91088867 C0 3 0 3 0 0 Z " fill="#0B101A" transform="translate(266,637)"/>
<path d="M0 0 C1.216875 -0.01417969 2.43375 -0.02835938 3.6875 -0.04296875 C6.7719563 0.17163375 8.42673876 0.55991226 11 2.1875 C10.67 2.8475 10.34 3.5075 10 4.1875 C9.49984375 4.01347656 8.9996875 3.83945312 8.484375 3.66015625 C5.03513078 3.00393211 1.72177828 3.33951351 -1.75 3.625 C-2.79607422 3.70331055 -2.79607422 3.70331055 -3.86328125 3.78320312 C-5.57596203 3.91224072 -7.28805066 4.04909614 -9 4.1875 C-9.66 3.1975 -10.32 2.2075 -11 1.1875 C-7.32872046 0.04022514 -3.82958514 0.02028382 0 0 Z " fill="#D8DBDE" transform="translate(703,677.8125)"/>
<path d="M0 0 C0.99 0 1.98 0 3 0 C3 15.51 3 31.02 3 47 C2.67 47 2.34 47 2 47 C2 32.81 2 18.62 2 4 C1.34 4 0.68 4 0 4 C0 2.68 0 1.36 0 0 Z " fill="#E3E1E0" transform="translate(766,665)"/>
<path d="M0 0 C3 3 6 6 9 9 C4.125 7.125 4.125 7.125 3 6 C2.690625 6.969375 2.38125 7.93875 2.0625 8.9375 C1 12 1 12 0 13 C-1.34267413 13.08631874 -2.68974322 13.10706473 -4.03515625 13.09765625 C-4.84404297 13.09443359 -5.65292969 13.09121094 -6.48632812 13.08789062 C-7.33646484 13.07951172 -8.18660156 13.07113281 -9.0625 13.0625 C-9.91650391 13.05798828 -10.77050781 13.05347656 -11.65039062 13.04882812 C-13.76695663 13.03700373 -15.88348685 13.01906769 -18 13 C-18 12.67 -18 12.34 -18 12 C-9.585 11.505 -9.585 11.505 -1 11 C-0.67 7.37 -0.34 3.74 0 0 Z " fill="#F7F7F6" transform="translate(339,701)"/>
<path d="M0 0 C0 0.33 0 0.66 0 1 C-1.08667969 1.07734375 -1.08667969 1.07734375 -2.1953125 1.15625 C-8.12472867 1.78026002 -8.12472867 1.78026002 -13.03125 4.87890625 C-14.48226399 6.86693768 -15.77263296 8.86850381 -17 11 C-18 12 -18 12 -21.5625 12.0625 C-22.696875 12.041875 -23.83125 12.02125 -25 12 C-25 11.67 -25 11.34 -25 11 C-23.02 11 -21.04 11 -19 11 C-18.79375 10.113125 -18.5875 9.22625 -18.375 8.3125 C-14.64640067 -0.67003476 -8.76331056 -0.70168857 0 0 Z " fill="#F1F1F1" transform="translate(703,650)"/>
<path d="M0 0 C1.25425781 0.00902344 2.50851562 0.01804687 3.80078125 0.02734375 C4.75339844 0.03894531 5.70601562 0.05054688 6.6875 0.0625 C6.6875 1.0525 6.6875 2.0425 6.6875 3.0625 C-2.7175 3.5575 -2.7175 3.5575 -12.3125 4.0625 C-12.3125 3.0725 -12.3125 2.0825 -12.3125 1.0625 C-8.15623632 0.05323521 -4.26884906 -0.03989579 0 0 Z " fill="#122134" transform="translate(699.3125,632.9375)"/>
<path d="M0 0 C0.33 0.99 0.66 1.98 1 3 C-1.80762957 8.2783436 -5.32934287 11.57910047 -10.9375 13.75 C-13.96396832 14.11684464 -16.95599113 14.05853863 -20 14 C-19.67 13.34 -19.34 12.68 -19 12 C-16.6015625 11.4375 -16.6015625 11.4375 -13.625 11 C-9.9287056 10.45384568 -8.16527075 10.1101805 -5 8 C-5 7.01 -5 6.02 -5 5 C-4.01 4.67 -3.02 4.34 -2 4 C-0.79117904 1.99983534 -0.79117904 1.99983534 0 0 Z " fill="#FAFAFA" transform="translate(712,684)"/>
<path d="M0 0 C0.33 0 0.66 0 1 0 C1 2.64 1 5.28 1 8 C5.62 8 10.24 8 15 8 C15 8.66 15 9.32 15 10 C9.72 10 4.44 10 -1 10 C-1.09765625 3.06640625 -1.09765625 3.06640625 -1 1 C-0.67 0.67 -0.34 0.34 0 0 Z " fill="#010411" transform="translate(453,828)"/>
<path d="M0 0 C0.33 0 0.66 0 1 0 C1 2.64 1 5.28 1 8 C5.62 8 10.24 8 15 8 C15 8.66 15 9.32 15 10 C9.72 10 4.44 10 -1 10 C-1 2 -1 2 0 0 Z " fill="#020513" transform="translate(715,702)"/>
<path d="M0 0 C0.33 0.66 0.66 1.32 1 2 C-0.00643739 4.66705908 -1.0734702 7.22182751 -2.25 9.8125 C-2.56324219 10.52470703 -2.87648438 11.23691406 -3.19921875 11.97070312 C-4.91104493 15.80988175 -6.73746183 19.44558047 -9 23 C-9.33 22.34 -9.66 21.68 -10 21 C-9.11921897 18.86221027 -8.14488966 16.76252897 -7.125 14.6875 C-5.20550616 10.77262535 -3.6335421 7.32920436 -3 3 C-2.34 3 -1.68 3 -1 3 C-0.67 2.01 -0.34 1.02 0 0 Z " fill="#0B0C12" transform="translate(700,453)"/>
<path d="M0 0 C0 0.66 0 1.32 0 2 C-0.58007812 2.03738281 -1.16015625 2.07476563 -1.7578125 2.11328125 C-8.22907358 2.65789233 -12.56345193 4.37563462 -18 8 C-16.2576496 3.81131923 -14.23836868 2.62366737 -10.2421875 0.75 C-6.70910361 -0.43179809 -3.69781089 -0.26412935 0 0 Z " fill="#F4F4F3" transform="translate(642,776)"/>
<path d="M0 0 C2.12472576 -0.05386629 4.24983652 -0.09273071 6.375 -0.125 C7.55835938 -0.14820313 8.74171875 -0.17140625 9.9609375 -0.1953125 C13 0 13 0 15 2 C15.99 2.66 16.98 3.32 18 4 C12.06 3.67 6.12 3.34 0 3 C0 2.01 0 1.02 0 0 Z " fill="#152940" transform="translate(633,760)"/>
<path d="M0 0 C0.66 0.66 1.32 1.32 2 2 C1.67 2.66 1.34 3.32 1 4 C-4.28 3.67 -9.56 3.34 -15 3 C-15 2.67 -15 2.34 -15 2 C-12.5431099 1.61144074 -10.08558167 1.23869912 -7.625 0.875 C-6.57699219 0.70677734 -6.57699219 0.70677734 -5.5078125 0.53515625 C-3.68212086 0.27183534 -1.8401238 0.1281884 0 0 Z " fill="#19222F" transform="translate(422,783)"/>
<path d="M0 0 C2 3 2 3 2 5 C9.26 5.33 16.52 5.66 24 6 C24 6.33 24 6.66 24 7 C16.08 7 8.16 7 0 7 C-1 3 -1 3 0 0 Z " fill="#E0E0E0" transform="translate(251,662)"/>
<path d="M0 0 C4.92127034 -0.16682272 8.50343896 -0.24828052 13 2 C12.67 2.99 12.34 3.98 12 5 C6.06 4.01 6.06 4.01 0 3 C0 2.01 0 1.02 0 0 Z " fill="#E2E3E4" transform="translate(779,650)"/>
<path d="M0 0 C-1.32 0.33 -2.64 0.66 -4 1 C-4 1.66 -4 2.32 -4 3 C-9.61 3 -15.22 3 -21 3 C-14.11654319 -0.44172841 -7.54257061 -0.1207885 0 0 Z " fill="#050B15" transform="translate(491,180)"/>
<path d="M0 0 C12.66970387 -0.18451025 12.66970387 -0.18451025 18 1 C18 1.33 18 1.66 18 2 C11.97403427 3.0712828 6.11090483 3.09945415 0 3 C0 2.01 0 1.02 0 0 Z " fill="#E1E2E3" transform="translate(496,211)"/>
<path d="M0 0 C4.46146003 1.40217315 7.03144272 3.3895925 10 7 C10.94169502 9.33967526 11.46482794 11.51874771 12 14 C11.34 14 10.68 14 10 14 C9.78085937 13.48050781 9.56171875 12.96101562 9.3359375 12.42578125 C6.96802357 7.21829575 4.5626048 4.4219536 0 1 C0 0.67 0 0.34 0 0 Z " fill="#0F121B" transform="translate(562,776)"/>
<path d="M0 0 C2.29109597 -0.08075665 4.58299267 -0.13907731 6.875 -0.1875 C8.78925781 -0.23970703 8.78925781 -0.23970703 10.7421875 -0.29296875 C11.81726563 -0.19628906 12.89234375 -0.09960938 14 0 C14.66 0.99 15.32 1.98 16 3 C11.71 3 7.42 3 3 3 C3 2.34 3 1.68 3 1 C2.01 0.67 1.02 0.34 0 0 Z " fill="#DEDFE0" transform="translate(526,714)"/>
<path d="M0 0 C0.33 0.66 0.66 1.32 1 2 C0.33333333 3.33333333 -0.33333333 4.66666667 -1 6 C-1 7.32 -1 8.64 -1 10 C1.97 10.495 1.97 10.495 5 11 C5 11.33 5 11.66 5 12 C2.03 12 -0.94 12 -4 12 C-3.28571429 3.42857143 -3.28571429 3.42857143 0 0 Z " fill="#0A0C12" transform="translate(670,647)"/>
<path d="M0 0 C1.61648438 0.04060547 1.61648438 0.04060547 3.265625 0.08203125 C4.08546875 0.11683594 4.9053125 0.15164063 5.75 0.1875 C4.76 1.6725 4.76 1.6725 3.75 3.1875 C0.4921875 3.48046875 0.4921875 3.48046875 -3.375 3.375 C-5.29699219 3.33439453 -5.29699219 3.33439453 -7.2578125 3.29296875 C-8.24523437 3.25816406 -9.23265625 3.22335937 -10.25 3.1875 C-6.86416198 0.05642164 -4.53890538 -0.14800778 0 0 Z " fill="#DCDCDF" transform="translate(788.25,630.8125)"/>
<path d="M0 0 C0 4.29 0 8.58 0 13 C-0.99 13 -1.98 13 -3 13 C-3 9.04 -3 5.08 -3 1 C-1 0 -1 0 0 0 Z " fill="#DEDFDF" transform="translate(745,792)"/>
<path d="M0 0 C-7.28571429 4.42857143 -7.28571429 4.42857143 -12 5 C-12.33 4.01 -12.66 3.02 -13 2 C-11.21089097 1.47044766 -9.41860852 0.9516063 -7.625 0.4375 C-6.62726563 0.14746094 -5.62953125 -0.14257812 -4.6015625 -0.44140625 C-2 -1 -2 -1 0 0 Z " fill="#0B1524" transform="translate(465,708)"/>
<path d="M0 0 C0.66 0.33 1.32 0.66 2 1 C-0.52779348 5.30661111 -2.10149114 7.68576592 -7 9 C-8.65919896 9.36871088 -10.3247643 9.71281674 -12 10 C-11.42765625 9.58105469 -10.8553125 9.16210938 -10.265625 8.73046875 C-8.00791958 7.00604892 -5.87881944 5.19295717 -3.75 3.3125 C-2.69039063 2.37857422 -2.69039063 2.37857422 -1.609375 1.42578125 C-1.07828125 0.95527344 -0.5471875 0.48476563 0 0 Z " fill="#070C16" transform="translate(468,687)"/>
<path d="M0 0 C0.66 0.33 1.32 0.66 2 1 C2 3.64 2 6.28 2 9 C-0.52053595 10.26026798 -1.8542098 9.91874445 -4.625 9.5625 C-5.44226563 9.46066406 -6.25953125 9.35882812 -7.1015625 9.25390625 C-7.72804688 9.17011719 -8.35453125 9.08632813 -9 9 C-9 8.67 -9 8.34 -9 8 C-6.03 8 -3.06 8 0 8 C0 5.36 0 2.72 0 0 Z " fill="#373D48" transform="translate(713,657)"/>
<path d="M0 0 C1.0725 0.639375 2.145 1.27875 3.25 1.9375 C5.80822182 3.40601273 8.05340886 4.52854542 11 5 C11 6.65 11 8.3 11 10 C10.45730469 9.59007812 9.91460937 9.18015625 9.35546875 8.7578125 C8.64003906 8.21898437 7.92460937 7.68015625 7.1875 7.125 C6.47980469 6.59132813 5.77210938 6.05765625 5.04296875 5.5078125 C3.39543703 4.29185219 1.70375789 3.13583859 0 2 C0 1.34 0 0.68 0 0 Z " fill="#F1F2F3" transform="translate(459,634)"/>
<path d="M0 0 C2.26609984 4.53219967 1.92735976 6.17772925 1 11 C-0.32 11 -1.64 11 -3 11 C-2.01 7.37 -1.02 3.74 0 0 Z " fill="#E5E6E6" transform="translate(303,789)"/>
<path d="M0 0 C2.32378307 3.4856746 2.63078302 5.86476981 3 10 C2.67 10.99 2.34 11.98 2 13 C1.34 13 0.68 13 0 13 C0 8.71 0 4.42 0 0 Z " fill="#E1E3E4" transform="translate(360,796)"/>
<path d="M0 0 C0.33 0.66 0.66 1.32 1 2 C1.66 2 2.32 2 3 2 C3.66 4.64 4.32 7.28 5 10 C4.01 10 3.02 10 2 10 C1.34 6.7 0.68 3.4 0 0 Z " fill="#E5E6E6" transform="translate(332,777)"/>
<path d="M0 0 C0 3 0 3 -1.20703125 4.60546875 C-1.73683594 5.12753906 -2.26664063 5.64960937 -2.8125 6.1875 C-3.33457031 6.71730469 -3.85664062 7.24710938 -4.39453125 7.79296875 C-6 9 -6 9 -9 9 C-9 7 -9 7 -7.8125 5.5625 C-5.68959173 3.73240666 -3.4219133 2.40216033 -1 1 C-0.67 0.67 -0.34 0.34 0 0 Z " fill="#0F1827" transform="translate(657,520)"/>
<path d="M0 0 C4.51617599 -0.07654536 8.59085217 -0.10228696 13 1 C13 1.33 13 1.66 13 2 C6.565 2.495 6.565 2.495 0 3 C0 2.01 0 1.02 0 0 Z " fill="#E3E2E1" transform="translate(577,813)"/>
<path d="M0 0 C0.33 0 0.66 0 1 0 C1.16986545 1.56215548 1.33573964 3.1247452 1.5 4.6875 C1.5928125 5.55761719 1.685625 6.42773438 1.78125 7.32421875 C1.99159864 9.89723339 2.03719144 12.41984364 2 15 C1.01 14.34 0.02 13.68 -1 13 C-0.67 8.71 -0.34 4.42 0 0 Z " fill="#D7D9DB" transform="translate(714,397)"/>
<path d="M0 0 C3 3 3 3 3.29296875 5.04296875 C3.1953125 7.02864583 3.09765625 9.01432292 3 11 C2.01 11.33 1.02 11.66 0 12 C0 8.04 0 4.08 0 0 Z " fill="#DEDEE0" transform="translate(305,388)"/>
<path d="M0 0 C0.33 1.32 0.66 2.64 1 4 C-1.64 4.66 -4.28 5.32 -7 6 C-7 5.01 -7 4.02 -7 3 C-4.69 2.01 -2.38 1.02 0 0 Z " fill="#E1E2E4" transform="translate(448,184)"/>
<path d="M0 0 C1.98 0.99 1.98 0.99 4 2 C4 2.66 4 3.32 4 4 C5.32 3.67 6.64 3.34 8 3 C6.71034824 4.37562854 5.37310707 5.70766393 4 7 C3.34 7 2.68 7 2 7 C0.5393715 4.35261084 0 3.10551666 0 0 Z " fill="#F3F4F5" transform="translate(595,519)"/>
<path d="M0 0 C0.99 0.33 1.98 0.66 3 1 C2.5020163 4.73487777 2.12508244 6.81237635 0 10 C-0.74926071 6.33694766 -1.2380014 3.57644848 0 0 Z " fill="#E2E2E1" transform="translate(708,431)"/>
<path d="M0 0 C-0.33 0.99 -0.66 1.98 -1 3 C-4.63 2.34 -8.26 1.68 -12 1 C-12 0.67 -12 0.34 -12 0 C-3.42857143 -1.28571429 -3.42857143 -1.28571429 0 0 Z " fill="#DCDEE1" transform="translate(530,249)"/>
<path d="M0 0 C0.99 0.33 1.98 0.66 3 1 C4.1875 4.0625 4.1875 4.0625 5 7 C3.68 7 2.36 7 1 7 C0.67 4.69 0.34 2.38 0 0 Z " fill="#132539" transform="translate(535,809)"/>
<path d="M0 0 C2.58464442 4.38008443 1.81479148 7.11125113 1 12 C0.34 11.34 -0.32 10.68 -1 10 C-0.9765625 7.6171875 -0.9765625 7.6171875 -0.625 4.875 C-0.51414062 3.96492187 -0.40328125 3.05484375 -0.2890625 2.1171875 C-0.19367188 1.41851563 -0.09828125 0.71984375 0 0 Z " fill="#152639" transform="translate(297,796)"/>
<path d="M0 0 C4.67692308 1.47692308 4.67692308 1.47692308 6.3125 4.125 C6.539375 4.74375 6.76625 5.3625 7 6 C4 6 4 6 1.3125 3.5 C0.549375 2.675 -0.21375 1.85 -1 1 C-0.67 0.67 -0.34 0.34 0 0 Z " fill="#DDDFE0" transform="translate(457,763)"/>
<path d="M0 0 C3.15436364 -0.08762121 6.03421164 -0.16513114 9 1 C9.33 1.99 9.66 2.98 10 4 C8.72125 3.896875 7.4425 3.79375 6.125 3.6875 C5.04605469 3.60048828 5.04605469 3.60048828 3.9453125 3.51171875 C2 3 2 3 0 0 Z " fill="#E5E5E4" transform="translate(559,758)"/>
<path d="M0 0 C0.66 0 1.32 0 2 0 C4.42857143 7.42857143 4.42857143 7.42857143 3 11 C0.84694043 7.14243493 -0.39253254 4.44870215 0 0 Z " fill="#F7F8F8" transform="translate(262,631)"/>
<path d="M0 0 C1 2 1 2 0.44140625 3.9453125 C0.15136719 4.66460937 -0.13867188 5.38390625 -0.4375 6.125 C-0.72496094 6.84945313 -1.01242187 7.57390625 -1.30859375 8.3203125 C-1.53675781 8.87460937 -1.76492188 9.42890625 -2 10 C-2.66 9.34 -3.32 8.68 -4 8 C-3.625 5.375 -3.625 5.375 -3 3 C-2.34 3 -1.68 3 -1 3 C-0.67 2.01 -0.34 1.02 0 0 Z " fill="#0A1422" transform="translate(700,453)"/>
<path d="M0 0 C2.32472205 2.85306797 3.7508258 5.54074837 5 9 C4.01 9 3.02 9 2 9 C2 8.01 2 7.02 2 6 C1.34 6 0.68 6 0 6 C-1 3 -1 3 0 0 Z " fill="#E1E2E4" transform="translate(531,325)"/>
<path d="M0 0 C0.99 0 1.98 0 3 0 C3.66 3.3 4.32 6.6 5 10 C2.47671768 7.47671768 1.28600973 6.1655624 0 3 C0 2.01 0 1.02 0 0 Z " fill="#0E2641" transform="translate(563,306)"/>
<path d="M0 0 C0.33 0.99 0.66 1.98 1 3 C-0.9375 5.6875 -0.9375 5.6875 -3 8 C-3.66 7.34 -4.32 6.68 -5 6 C-2.25 1.125 -2.25 1.125 0 0 Z " fill="#E2E3E4" transform="translate(502,298)"/>
<path d="M0 0 C2.64 0 5.28 0 8 0 C8.33 0.99 8.66 1.98 9 3 C6.36 3 3.72 3 1 3 C0.67 2.01 0.34 1.02 0 0 Z " fill="#E0E0E1" transform="translate(659,813)"/>
<path d="M0 0 C0.66 0 1.32 0 2 0 C1.67 2.64 1.34 5.28 1 8 C0.34 8 -0.32 8 -1 8 C-1.33 6.02 -1.66 4.04 -2 2 C-1.34 2 -0.68 2 0 2 C0 1.34 0 0.68 0 0 Z " fill="#E2E5E7" transform="translate(301,801)"/>
<path d="M0 0 C0.66 0.33 1.32 0.66 2 1 C2.40729228 3.32156597 2.74438677 5.6568787 3 8 C2.01 7.67 1.02 7.34 0 7 C-1.125 2.25 -1.125 2.25 0 0 Z " fill="#E4E4E4" transform="translate(506,691)"/>
<path d="M0 0 C3.16115776 1.36983503 3.9927092 1.9890638 6 5 C5.67 5.99 5.34 6.98 5 8 C3.09276551 6.09276551 1.52626646 4.22002394 0 2 C0 1.34 0 0.68 0 0 Z " fill="#E0E1E1" transform="translate(581,491)"/>
<path d="M0 0 C1.25541557 3.76624671 0.37061958 5.37188934 -1 9 C-2.38111722 6.7252187 -3.05694702 5.49828639 -2.75 2.8125 C-2 1 -2 1 0 0 Z " fill="#E1E0DF" transform="translate(331,773)"/>
<path d="M0 0 C0.33 0.99 0.66 1.98 1 3 C-0.4375 5.6875 -0.4375 5.6875 -2 8 C-3.32 7.67 -4.64 7.34 -6 7 C-5 5 -5 5 -2 4 C-0.79117904 1.99983534 -0.79117904 1.99983534 0 0 Z " fill="#F3F2F2" transform="translate(712,684)"/>
<path d="M0 0 C0.66 0.66 1.32 1.32 2 2 C1.75 4.5625 1.75 4.5625 1 7 C0.01 7.495 0.01 7.495 -1 8 C-1.93065133 5.39417629 -2.14917407 4.35801776 -1.0625 1.75 C-0.711875 1.1725 -0.36125 0.595 0 0 Z " fill="#132337" transform="translate(390,441)"/>
<path d="M0 0 C0.99 0 1.98 0 3 0 C3.66 1.98 4.32 3.96 5 6 C4.01 6.33 3.02 6.66 2 7 C0.5393715 4.35261084 0 3.10551666 0 0 Z " fill="#E4E5E5" transform="translate(685,815)"/>
<path d="M0 0 C2.64 0.33 5.28 0.66 8 1 C7.01 2.485 7.01 2.485 6 4 C3.03 3.505 3.03 3.505 0 3 C0 2.01 0 1.02 0 0 Z " fill="#DDDEDE" transform="translate(471,540)"/>
<path d="M0 0 C1.33333333 2.66666667 2.66666667 5.33333333 4 8 C3.01 8 2.02 8 1 8 C-0.42944945 5.64561267 -1.08661261 4.51967567 -0.625 1.75 C-0.41875 1.1725 -0.2125 0.595 0 0 Z " fill="#E2E3E4" transform="translate(614,405)"/>
<path d="M0 0 C1.5625 1.75 1.5625 1.75 3 4 C2.6875 6.25 2.6875 6.25 2 8 C0.4375 6.25 0.4375 6.25 -1 4 C-0.6875 1.75 -0.6875 1.75 0 0 Z " fill="#E3E3E5" transform="translate(576,324)"/>
<path d="M0 0 C0.99 0.33 1.98 0.66 3 1 C3.33 2.98 3.66 4.96 4 7 C3.34 7 2.68 7 2 7 C0.5393715 4.35261084 0 3.10551666 0 0 Z " fill="#E5E6E6" transform="translate(691,281)"/>
<path d="M0 0 C2.64 0.66 5.28 1.32 8 2 C5 4 5 4 1.8125 3.625 C0.884375 3.41875 -0.04375 3.2125 -1 3 C-0.67 2.01 -0.34 1.02 0 0 Z " fill="#E3E4E5" transform="translate(565,219)"/>
</svg>
